<?xml version="1.0" encoding="UTF-8"?>
<!DOCTYPE svg PUBLIC "-//W3C//DTD SVG 1.1//EN" "http://www.w3.org/Graphics/SVG/1.1/DTD/svg11.dtd">
<!-- Creator: CorelDRAW -->
<svg xmlns="http://www.w3.org/2000/svg" xml:space="preserve" width="300px" height="40px" style="shape-rendering:geometricPrecision; text-rendering:geometricPrecision; image-rendering:optimizeQuality; fill-rule:evenodd; clip-rule:evenodd"
viewBox="0 0 193.746 22.289"
 xmlns:xlink="http://www.w3.org/1999/xlink">
 <defs>
  <style type="text/css">
   <![CDATA[
    .fil0 {fill:white}
   ]]>
  </style>
 </defs>
 <g id="Vrstva_x0020_1">
  <metadata id="CorelCorpID_0Corel-Layer"/>
  <path class="fil0" d="M6.45776 14.8209l0 3.64117 3.57657 0c0.848534,0 1.45531,0.165879 1.8209,0.495621 0.359121,0.32969 0.541759,0.7545 0.541759,1.28462 0,0.51781 -0.182638,0.942621 -0.541759,1.26688 -0.365586,0.329328 -0.972362,0.494897 -1.8209,0.494897l-7.66547 -0.000362069c-0.854379,0 -1.46147,-0.164483 -1.82095,-0.494534 -0.365276,-0.324931 -0.547914,-0.75419 -0.547914,-1.28467 0,-0.518845 0.188431,-0.936776 0.554069,-1.26683 0.371121,-0.330052 0.972052,-0.494948 1.81479,-0.494948l0.553759 -0.000672414 0 -13.84 -0.553759 0c-0.854379,0 -1.46147,-0.164845 -1.82095,-0.494897 -0.365276,-0.324259 -0.547914,-0.75419 -0.547914,-1.28431 0,-0.531155 0.182638,-0.960414 0.547914,-1.28467 0.359483,-0.330362 0.966569,-0.494897 1.82095,-0.494897l8.14872 0.0171207c2.39209,0 4.28933,0.654621 5.68583,1.96252 1.39645,1.3021 2.09762,2.89319 2.09762,4.77295 0,1.03634 -0.235655,2.01486 -0.706966,2.93421 -0.359483,0.688862 -0.954621,1.37291 -1.78536,2.04466 -0.836586,0.671379 -1.69097,1.17828 -2.55734,1.51991 -0.87181,0.335897 -2.01486,0.506897 -3.4469,0.506897l-3.34671 -0.000672414zm0 -3.5355l3.28205 0c1.53776,0 2.76357,-0.34681 3.66481,-1.04798 0.907397,-0.695328 1.35543,-1.53191 1.35543,-2.51012 0,-0.825621 -0.365276,-1.5555 -1.09619,-2.17422 -0.730552,-0.618724 -1.77341,-0.930983 -3.12848,-0.930983l-4.07762 0 0 6.66331zm19.6151 2.72866l0 4.44802 1.27298 0c0.854379,0 1.46116,0.165879 1.82643,0.495621 0.359483,0.32969 0.542121,0.7545 0.542121,1.28462 0,0.51781 -0.182638,0.942621 -0.542121,1.26688 -0.365276,0.329328 -0.972052,0.494897 -1.82643,0.494897l-5.36803 -0.000362069c-0.848224,0 -1.45531,-0.164483 -1.82059,-0.494534 -0.359483,-0.324931 -0.542121,-0.75419 -0.542121,-1.28467 0,-0.518845 0.182638,-0.936776 0.554069,-1.26683 0.365276,-0.330052 0.972052,-0.494948 1.80864,-0.494948l0.554069 -0.000672414 0 -13.84 -0.554069 0c-0.848224,0 -1.45531,-0.164845 -1.82059,-0.494897 -0.359483,-0.324259 -0.542121,-0.75419 -0.542121,-1.28431 0,-0.531155 0.182638,-0.960414 0.542121,-1.28467 0.365276,-0.330362 0.972362,-0.494897 1.82059,-0.494897l8.01362 0.0171207c2.49812,0 4.4309,0.619397 5.8096,1.85648 1.37291,1.23709 2.06209,2.73998 2.06209,4.51334 0,1.10747 -0.323897,2.10962 -0.966259,3.01117 -0.648103,0.906724 -1.62016,1.70876 -2.92257,2.40993 0.748345,0.659431 1.54971,1.49633 2.40409,2.52171 0.530483,0.653638 1.24324,1.67938 2.139,3.06967 0.895448,-0.000672414 1.49053,0.0943966 1.77921,0.277034 0.518534,0.359172 0.777776,0.860224 0.777776,1.50253 0,0.51781 -0.182638,0.942621 -0.535966,1.26688 -0.359431,0.329328 -0.960362,0.494897 -1.81474,0.494897l-2.02102 -0.000362069c-2.86381,-4.43059 -5.23847,-7.09391 -7.1295,-7.98931l-3.50028 -0.000362069zm0 -3.54166l2.75772 0c1.02507,0 1.94441,-0.152534 2.74578,-0.464793 1.08424,-0.412862 1.80895,-0.854379 2.18586,-1.31405 0.371121,-0.459362 0.559914,-0.913241 0.559914,-1.36091 0,-0.671741 -0.353638,-1.28467 -1.0726,-1.85617 -0.712759,-0.572224 -1.74978,-0.854379 -3.12269,-0.854379l-4.05398 0 0 5.85031zm26.6389 -5.85031l0 13.84 3.57041 0c0.854379,0 1.46147,0.165879 1.82095,0.495621 0.365276,0.32969 0.542069,0.7545 0.542069,1.28462 0,0.51781 -0.176793,0.942621 -0.542069,1.26688 -0.359483,0.329328 -0.966569,0.494897 -1.82095,0.494897l-10.6824 -0.000362069c-0.854379,0 -1.46116,-0.164483 -1.82643,-0.494534 -0.359483,-0.324931 -0.542121,-0.75419 -0.542121,-1.28467 0,-0.518845 0.182638,-0.936776 0.542121,-1.26683 0.365276,-0.330052 0.972052,-0.494948 1.82643,-0.494948l3.57072 -0.000672414 0 -13.84 -3.57072 0c-0.854379,0 -1.46116,-0.164845 -1.82643,-0.494897 -0.359483,-0.324259 -0.542121,-0.75419 -0.542121,-1.28431 0,-0.531155 0.182638,-0.960414 0.542121,-1.28467 0.365276,-0.330362 0.972052,-0.494897 1.82643,-0.494897l10.6824 0.0171207c0.854379,0 1.46147,0.165517 1.82095,0.483621 0.365276,0.324207 0.542069,0.748345 0.542069,1.27883 0,0.529759 -0.176793,0.960362 -0.542069,1.28431 -0.359483,0.330052 -0.966569,0.494897 -1.82095,0.494897l-3.57041 0zm15.019 3.14012l0 10.6999 1.27883 0c0.848534,0 1.45531,0.165879 1.82059,0.495621 0.359483,0.32969 0.542121,0.7545 0.542121,1.28462 0,0.51781 -0.182638,0.942621 -0.542121,1.26688 -0.365276,0.329328 -0.972052,0.494897 -1.82059,0.494897l-4.64297 -0.000362069c-0.854379,0 -1.46147,-0.164483 -1.82679,-0.494534 -0.359431,-0.324931 -0.542069,-0.75419 -0.542069,-1.28467 0,-0.506897 0.176793,-0.924828 0.536276,-1.26067 0.359483,-0.330776 0.907397,-0.501103 1.65574,-0.501103l0 -13.8407 -0.547914 0c-0.854379,0 -1.46147,-0.164845 -1.82674,-0.494897 -0.359483,-0.324259 -0.542121,-0.75419 -0.542121,-1.28431 0,-0.531155 0.182638,-0.960414 0.542121,-1.28467 0.365276,-0.330362 0.972362,-0.494897 1.82674,-0.494897l4.0889 0.0171207 9.04448 14.1885 0 -10.6468 -1.27852 0c-0.848534,0 -1.45531,-0.164845 -1.82059,-0.494897 -0.359431,-0.324259 -0.542069,-0.75419 -0.542069,-1.28431 0,-0.531155 0.182638,-0.960414 0.542069,-1.28467 0.365276,-0.330362 0.972052,-0.494897 1.82059,-0.494897l4.64302 0.0171207c0.854379,0 1.46147,0.165517 1.82059,0.483621 0.365638,0.324207 0.548276,0.748345 0.548276,1.27883 0,0.518172 -0.182638,0.942621 -0.536328,1.27847 -0.359431,0.329741 -0.901552,0.500741 -1.63795,0.500741l0 17.3816 -3.50607 0 -9.0975 -14.2415zm27.3636 -3.14012l0 13.84 2.38014 0c0.854379,0 1.46147,0.165879 1.82095,0.495621 0.365276,0.32969 0.542121,0.7545 0.542121,1.28462 0,0.51781 -0.176845,0.942621 -0.542121,1.26688 -0.359483,0.329328 -0.966569,0.494897 -1.82095,0.494897l-8.28414 -0.000362069c-0.854379,0 -1.46147,-0.164483 -1.82059,-0.494534 -0.365638,-0.324931 -0.548276,-0.75419 -0.548276,-1.28467 0,-0.518845 0.182638,-0.936776 0.548276,-1.26683 0.359121,-0.330052 0.966207,-0.494948 1.82059,-0.494948l2.36271 -0.000672414 0 -13.84 -3.83002 0 0 3.34671c0,0.853655 -0.164845,1.46147 -0.494897,1.8209 -0.323897,0.364966 -0.754138,0.547966 -1.28431,0.547966 -0.518483,-0.000362069 -0.942931,-0.182638 -1.26683,-0.547966 -0.330052,-0.359793 -0.494948,-0.966517 -0.494948,-1.8209l0 -6.90584 18.3363 0.0174828 0 6.88836c0,0.853655 -0.164845,1.46147 -0.494897,1.8209 -0.330052,0.364966 -0.754138,0.547966 -1.28462,0.547966 -0.518534,-0.000362069 -0.942621,-0.182638 -1.27267,-0.547966 -0.323897,-0.359793 -0.489103,-0.966517 -0.489103,-1.8209l0 -3.34671 -3.88267 0zm22.2651 11.2711c0,1.97452 -0.694966,3.52898 -2.08976,4.67752 -1.39474,1.14305 -3.28686,1.71833 -5.67109,1.71833 -2.085,-0.000362069 -3.75952,-0.42481 -5.0339,-1.27438l0 -3.87579c1.81955,1.01783 3.50881,1.53021 5.06297,1.53021 1.05683,-0.000724138 1.88214,-0.2025 2.47593,-0.603362 0.593741,-0.400862 0.887897,-0.950793 0.887897,-1.64581 0,-0.405621 -0.0626379,-0.762362 -0.188121,-1.06645 -0.130345,-0.309155 -0.308845,-0.593741 -0.545224,-0.859138 -0.236638,-0.260948 -0.8205,-0.743224 -1.75216,-1.443 -1.30314,-0.932379 -2.21529,-1.85343 -2.74614,-2.7704 -0.526034,-0.912517 -0.791431,-1.89688 -0.791431,-2.95371 0,-1.2166 0.294155,-2.30219 0.878328,-3.25779 0.58381,-0.960724 1.41424,-1.70364 2.49507,-2.23479 1.08114,-0.536276 2.32164,-0.801 3.726,-0.801 2.04631,-0.000672414 3.91412,0.468207 5.61331,1.39955l-1.53983 3.29576c-1.47207,-0.699776 -2.82817,-1.04659 -4.07348,-1.04659 -0.781862,-0.000724138 -1.42386,0.212379 -1.92559,0.63719 -0.497328,0.423724 -0.748034,0.98431 -0.748034,1.68409 0,0.574293 0.154293,1.07638 0.467897,1.50595 0.309207,0.424448 1.00898,0.994241 2.09012,1.70364 1.14372,0.752793 1.9981,1.58322 2.56278,2.49538 0.564672,0.907086 0.844448,1.96903 0.844448,3.1846zm13.9046 -9.99533c2.06074,0 3.29643,1.07705 3.70174,3.22464l0.0868966 -0.000724138c0.641948,-1.03769 1.39474,-1.83321 2.26831,-2.38836 0.873828,-0.555103 1.80517,-0.834879 2.79466,-0.834879 1.27883,-0.000672414 2.25874,0.400552 2.93421,1.20191 0.671069,0.800328 1.00898,1.92078 1.00898,3.34945 0,0.718914 -0.106345,1.56848 -0.323534,2.5484l-1.88219 9.00548 -4.25679 0 1.94984 -9.23328c0.154293,-0.641276 0.226759,-1.20083 0.226759,-1.68341 0,-1.15878 -0.458638,-1.73752 -1.38517,-1.73752 -0.863948,-0.000310345 -1.65062,0.526034 -2.35521,1.58291 -0.699776,1.05616 -1.25964,2.55321 -1.67488,4.49829l-1.3561 6.573 -4.25684 0 1.94033 -9.23328c0.149431,-0.641276 0.221948,-1.20083 0.221948,-1.68341 0,-1.15878 -0.458638,-1.73752 -1.38517,-1.73752 -0.864,-0.000310345 -1.65062,0.535603 -2.36033,1.61198 -0.704586,1.07529 -1.26445,2.57234 -1.66976,4.49793l-1.38522 6.54429 -4.25679 0 3.35421 -15.8063 3.25298 0 -0.299276 2.92428 0.0868966 0c1.3756,-2.14722 3.04536,-3.22324 5.01952,-3.22391zm25.6474 6.26452c0,-1.85752 -0.670707,-2.78405 -2.02205,-2.78405 -0.704897,-0.000724138 -1.33697,0.284897 -1.90164,0.859138 -0.559862,0.578379 -1.01855,1.41905 -1.37084,2.53371 -0.352241,1.1099 -0.530793,2.25874 -0.530793,3.43634 0,1.74228 0.709345,2.61616 2.12364,2.61616 0.704534,-0.000362069 1.34172,-0.289707 1.90645,-0.868759 0.569431,-0.580086 1.00862,-1.38522 1.32222,-2.4181 0.318776,-1.0336 0.473017,-2.15752 0.473017,-3.37443zm4.28591 0c0,1.98853 -0.333103,3.75098 -0.994241,5.29045 -0.665948,1.53466 -1.62667,2.72695 -2.88124,3.56664 -1.25007,0.844448 -2.74164,1.26957 -4.46441,1.26957 -1.83905,-0.000362069 -3.306,-0.555103 -4.40664,-1.66531 -1.10028,-1.10545 -1.64581,-2.57716 -1.64581,-4.41621 0,-2.0084 0.333103,-3.79821 1.00893,-5.36669 0.675517,-1.5689 1.6455,-2.78478 2.91988,-3.64872 1.27402,-0.86431 2.76047,-1.29357 4.46922,-1.29357 1.84831,-0.000672414 3.306,0.555103 4.38238,1.67012 1.07633,1.10917 1.61193,2.64455 1.61193,4.59372zm14.2812 -5.96488l4.86491 0 -7.04193 7.12366 4.03009 8.68262 -4.749 0 -2.58709 -5.93684 -1.69883 1.0141 -1.04726 4.92274 -4.25684 0 4.66728 -22.0038 4.25679 0 -2.09488 9.81678c-0.0721552,0.386121 -0.212379,0.937138 -0.410069,1.65129l-0.395741 1.443 0.0578276 0 6.40474 -6.71359zm12.6983 2.7704c-0.830121,0 -1.61198,0.376552 -2.34564,1.12971 -0.738414,0.752069 -1.21624,1.67452 -1.44331,2.75566l0.63719 -0.000672414c1.45769,0 2.59666,-0.226086 3.41234,-0.684724 0.815379,-0.453879 1.22581,-1.07602 1.22581,-1.85788 0,-0.89369 -0.497276,-1.34178 -1.4864,-1.34209zm-2.31688 13.3208c-1.98341,0 -3.51843,-0.535603 -4.60914,-1.59724 -1.09552,-1.06743 -1.641,-2.57234 -1.641,-4.51267 0,-1.95021 0.386121,-3.73076 1.16322,-5.33793 0.781862,-1.60753 1.83393,-2.83298 3.16133,-3.67779 1.33216,-0.84481 2.83298,-1.2645 4.51262,-1.2645 1.665,-0.000672414 2.96809,0.386172 3.89979,1.15366 0.936103,0.7665 1.39955,1.8196 1.39955,3.16102 0,1.76141 -0.786672,3.12269 -2.35997,4.07829 -1.57366,0.954931 -3.82247,1.43343 -6.74266,1.43343l-0.723724 -0.000724138 -0.029069 0.299276 0 0.280448c0,0.858517 0.246259,1.53502 0.728845,2.03234 0.487397,0.491793 1.18236,0.743224 2.085,0.743224 0.8205,-0.000362069 1.56848,-0.0917069 2.23443,-0.270569 0.671017,-0.179224 1.48164,-0.496966 2.43248,-0.945672l0 3.20917c-1.62155,0.810259 -3.46029,1.2166 -5.51172,1.21624z"/>
 </g>
</svg>
